<?xml version="1.0" encoding="UTF-8" standalone="no"?>
<!-- Created with Inkscape (http://www.inkscape.org/) -->

<svg
   xmlns:dc="http://purl.org/dc/elements/1.1/"
   xmlns:cc="http://creativecommons.org/ns#"
   xmlns:rdf="http://www.w3.org/1999/02/22-rdf-syntax-ns#"
   xmlns:svg="http://www.w3.org/2000/svg"
   xmlns="http://www.w3.org/2000/svg"
   xmlns:sodipodi="http://sodipodi.sourceforge.net/DTD/sodipodi-0.dtd"
   xmlns:inkscape="http://www.inkscape.org/namespaces/inkscape"
   width="96"
   height="96"
   id="svg2"
   version="1.1"
   inkscape:version="0.48.3.1 r9886"
   sodipodi:docname="icon.svg">
  <defs
     id="defs4" />
  <sodipodi:namedview
     id="base"
     pagecolor="#ffffff"
     bordercolor="#666666"
     borderopacity="1.0"
     inkscape:pageopacity="0.0"
     inkscape:pageshadow="2"
     inkscape:zoom="2.8"
     inkscape:cx="-7.4368897"
     inkscape:cy="32.070427"
     inkscape:document-units="px"
     inkscape:current-layer="layer1"
     showgrid="false"
     inkscape:window-width="1680"
     inkscape:window-height="1000"
     inkscape:window-x="0"
     inkscape:window-y="0"
     inkscape:window-maximized="1" />
  <metadata
     id="metadata7">
    <rdf:RDF>
      <cc:Work
         rdf:about="">
        <dc:format>image/svg+xml</dc:format>
        <dc:type
           rdf:resource="http://purl.org/dc/dcmitype/StillImage" />
        <dc:title></dc:title>
      </cc:Work>
    </rdf:RDF>
  </metadata>
  <g
     inkscape:label="Layer 1"
     inkscape:groupmode="layer"
     id="layer1"
     transform="translate(0,-956.36218)">
    <path
       sodipodi:type="arc"
       style="color:#000000;fill:#ffffff;fill-opacity:1;fill-rule:nonzero;stroke:#1e1e1e;stroke-width:0.22371584;stroke-miterlimit:4;stroke-opacity:1;stroke-dasharray:none;marker:none;visibility:visible;display:inline;overflow:visible;enable-background:accumulate"
       id="path2998-8-4-7-5-8-0-1-4-9"
       sodipodi:cx="180.12283"
       sodipodi:cy="458.70816"
       sodipodi:rx="10.290929"
       sodipodi:ry="10.290929"
       d="m 190.41376,458.70816 c 0,5.68352 -4.6074,10.29093 -10.29093,10.29093 -5.68352,0 -10.29093,-4.60741 -10.29093,-10.29093 0,-5.68352 4.60741,-10.29093 10.29093,-10.29093 5.68353,0 10.29093,4.60741 10.29093,10.29093 z"
       transform="matrix(4.4699561,0,0,4.4699561,-757.14116,-1046.0432)" />
    <path
       sodipodi:type="arc"
       style="color:#000000;fill:#ffffff;fill-opacity:1;fill-rule:nonzero;stroke:#1e1e1e;stroke-width:0.24831887;stroke-miterlimit:4;stroke-opacity:1;stroke-dasharray:none;marker:none;visibility:visible;display:inline;overflow:visible;enable-background:accumulate"
       id="path2998-8-4-7-5-8-0-1-4"
       sodipodi:cx="180.12283"
       sodipodi:cy="458.70816"
       sodipodi:rx="10.290929"
       sodipodi:ry="10.290929"
       d="m 190.41376,458.70816 c 0,5.68352 -4.6074,10.29093 -10.29093,10.29093 -5.68352,0 -10.29093,-4.60741 -10.29093,-10.29093 0,-5.68352 4.60741,-10.29093 10.29093,-10.29093 5.68353,0 10.29093,4.60741 10.29093,10.29093 z"
       transform="matrix(4.0270802,0,0,4.0270802,-677.3691,-842.89232)" />
    <path
       sodipodi:type="arc"
       style="color:#000000;fill:#000000;fill-opacity:1;fill-rule:nonzero;stroke:#1e1e1e;stroke-width:0.27900195;stroke-miterlimit:4;stroke-opacity:1;stroke-dasharray:none;marker:none;visibility:visible;display:inline;overflow:visible;enable-background:accumulate"
       id="path2998-8-4-7-5-8-0-1"
       sodipodi:cx="180.12283"
       sodipodi:cy="458.70816"
       sodipodi:rx="10.290929"
       sodipodi:ry="10.290929"
       d="m 190.41376,458.70816 c 0,5.68352 -4.6074,10.29093 -10.29093,10.29093 -5.68352,0 -10.29093,-4.60741 -10.29093,-10.29093 0,-5.68352 4.60741,-10.29093 10.29093,-10.29093 5.68353,0 10.29093,4.60741 10.29093,10.29093 z"
       transform="matrix(3.5842044,0,0,3.5842044,-597.59704,-639.74157)" />
    <path
       sodipodi:type="arc"
       style="color:#000000;fill:#000000;fill-opacity:1;fill-rule:nonzero;stroke:#1e1e1e;stroke-width:0.3193838;stroke-miterlimit:4;stroke-opacity:1;stroke-dasharray:none;marker:none;visibility:visible;display:inline;overflow:visible;enable-background:accumulate"
       id="path2998-8-4-7-5-8-0"
       sodipodi:cx="180.12283"
       sodipodi:cy="458.70816"
       sodipodi:rx="10.290929"
       sodipodi:ry="10.290929"
       d="m 190.41376,458.70816 c 0,5.68352 -4.6074,10.29093 -10.29093,10.29093 -5.68352,0 -10.29093,-4.60741 -10.29093,-10.29093 0,-5.68352 4.60741,-10.29093 10.29093,-10.29093 5.68353,0 10.29093,4.60741 10.29093,10.29093 z"
       transform="matrix(3.1310291,0,0,3.1310291,-515.96981,-431.86635)" />
    <path
       sodipodi:type="arc"
       style="color:#000000;fill:#41b7c8;fill-opacity:1;fill-rule:nonzero;stroke:#1e1e1e;stroke-width:0.3720026;stroke-miterlimit:4;stroke-opacity:1;stroke-dasharray:none;marker:none;visibility:visible;display:inline;overflow:visible;enable-background:accumulate"
       id="path2998-8-4-7-5-8"
       sodipodi:cx="180.12283"
       sodipodi:cy="458.70816"
       sodipodi:rx="10.290929"
       sodipodi:ry="10.290929"
       d="m 190.41376,458.70816 c 0,5.68352 -4.6074,10.29093 -10.29093,10.29093 -5.68352,0 -10.29093,-4.60741 -10.29093,-10.29093 0,-5.68352 4.60741,-10.29093 10.29093,-10.29093 5.68353,0 10.29093,4.60741 10.29093,10.29093 z"
       transform="matrix(2.6881533,0,0,2.6881533,-436.19779,-228.7156)" />
    <path
       sodipodi:type="arc"
       style="color:#000000;fill:#41b7c8;fill-opacity:1;fill-rule:nonzero;stroke:#1e1e1e;stroke-width:0.44950312;stroke-miterlimit:4;stroke-opacity:1;stroke-dasharray:none;marker:none;visibility:visible;display:inline;overflow:visible;enable-background:accumulate"
       id="path2998-8-4-7-5"
       sodipodi:cx="180.12283"
       sodipodi:cy="458.70816"
       sodipodi:rx="10.290929"
       sodipodi:ry="10.290929"
       d="m 190.41376,458.70816 c 0,5.68352 -4.6074,10.29093 -10.29093,10.29093 -5.68352,0 -10.29093,-4.60741 -10.29093,-10.29093 0,-5.68352 4.60741,-10.29093 10.29093,-10.29093 5.68353,0 10.29093,4.60741 10.29093,10.29093 z"
       transform="matrix(2.2246786,0,0,2.2246786,-352.71541,-16.115965)" />
    <path
       sodipodi:type="arc"
       style="color:#000000;fill:#fd1b14;fill-opacity:1;fill-rule:nonzero;stroke:#1e1e1e;stroke-width:0.5580039;stroke-miterlimit:4;stroke-opacity:1;stroke-dasharray:none;marker:none;visibility:visible;display:inline;overflow:visible;enable-background:accumulate"
       id="path2998-8-4-7"
       sodipodi:cx="180.12283"
       sodipodi:cy="458.70816"
       sodipodi:rx="10.290929"
       sodipodi:ry="10.290929"
       d="m 190.41376,458.70816 c 0,5.68352 -4.6074,10.29093 -10.29093,10.29093 -5.68352,0 -10.29093,-4.60741 -10.29093,-10.29093 0,-5.68352 4.60741,-10.29093 10.29093,-10.29093 5.68353,0 10.29093,4.60741 10.29093,10.29093 z"
       transform="matrix(1.7921022,0,0,1.7921022,-274.79852,182.31032)" />
    <path
       sodipodi:type="arc"
       style="color:#000000;fill:#fd1b14;fill-opacity:1;fill-rule:nonzero;stroke:#1e1e1e;stroke-width:0.7526564;stroke-miterlimit:4;stroke-opacity:1;stroke-dasharray:none;marker:none;visibility:visible;display:inline;overflow:visible;enable-background:accumulate"
       id="path2998-8-4"
       sodipodi:cx="180.12283"
       sodipodi:cy="458.70816"
       sodipodi:rx="10.290929"
       sodipodi:ry="10.290929"
       d="m 190.41376,458.70816 c 0,5.68352 -4.6074,10.29093 -10.29093,10.29093 -5.68352,0 -10.29093,-4.60741 -10.29093,-10.29093 0,-5.68352 4.60741,-10.29093 10.29093,-10.29093 5.68353,0 10.29093,4.60741 10.29093,10.29093 z"
       transform="matrix(1.3286275,0,0,1.3286275,-191.31614,394.90997)" />
    <path
       sodipodi:type="arc"
       style="color:#000000;fill:#fff535;fill-opacity:1;fill-rule:nonzero;stroke:#1e1e1e;stroke-width:1.19867504;stroke-miterlimit:4;stroke-opacity:1;stroke-dasharray:none;marker:none;visibility:visible;display:inline;overflow:visible;enable-background:accumulate"
       id="path2998-8"
       sodipodi:cx="180.12283"
       sodipodi:cy="458.70816"
       sodipodi:rx="10.290929"
       sodipodi:ry="10.290929"
       d="m 190.41376,458.70816 c 0,5.68352 -4.6074,10.29093 -10.29093,10.29093 -5.68352,0 -10.29093,-4.60741 -10.29093,-10.29093 0,-5.68352 4.60741,-10.29093 10.29093,-10.29093 5.68353,0 10.29093,4.60741 10.29093,10.29093 z"
       transform="matrix(0.83425447,0,0,0.83425447,-102.26827,621.68291)" />
    <path
       sodipodi:type="arc"
       style="color:#000000;fill:#fff535;fill-opacity:1;fill-rule:nonzero;stroke:#1e1e1e;stroke-width:2.36811399;stroke-miterlimit:4;stroke-opacity:1;stroke-dasharray:none;marker:none;visibility:visible;display:inline;overflow:visible;enable-background:accumulate"
       id="path2998"
       sodipodi:cx="180.12283"
       sodipodi:cy="458.70816"
       sodipodi:rx="10.290929"
       sodipodi:ry="10.290929"
       d="m 190.41376,458.70816 c 0,5.68352 -4.6074,10.29093 -10.29093,10.29093 -5.68352,0 -10.29093,-4.60741 -10.29093,-10.29093 0,-5.68352 4.60741,-10.29093 10.29093,-10.29093 5.68353,0 10.29093,4.60741 10.29093,10.29093 z"
       transform="matrix(0.42227696,0,0,0.42227696,-28.061708,810.66036)" />
  </g>
</svg>
